<svg xmlns="http://www.w3.org/2000/svg" xmlns:xlink="http://www.w3.org/1999/xlink" viewBox="-1562.6 -504 390.2 32" enable-background="new -1562.6 -504 390.2 32"><g class="vcu-dk"><path fill="#AAB2B1" d="M-1484.8-485.2h2.1l2.4-6.6h-1.8l-1.6 4.8-1.5-4.8h-2l2.4 6.6zm8.9 0h1.8v-6.6h-1.8v6.6zm6.8 0h1.8v-2.6h.8c.8 0 .8.3.9 1.1.1.6.1 1.1.2 1.5h1.9l-.3-1.6c-.1-1-.2-1.6-1.5-1.7.2 0 .6-.1 1-.3.3-.2.6-.5.6-1.2s-.2-1-.5-1.2c-.3-.5-.8-.5-2-.5h-3.1v6.6h.2v-.1zm1.8-5.3h.7c.6 0 1.2 0 1.2.8 0 .2-.1.6-.5.8h-1.5v-1.6h.1zm14.7.6c0-.3 0-.9-.5-1.4-.6-.5-1.4-.7-2.4-.7-.8 0-1.9.1-2.7.8-.8.7-1 1.8-1 2.6 0 1 .3 2 1.2 2.7.8.6 1.7.7 2.5.7 1 0 1.9-.1 2.8-.3v-3.5h-3.1v1.2h1.4v1.2c-.3.1-.7.1-1 .1-1.1 0-1.9-.7-1.9-2.1 0-1.1.5-2.1 1.7-2.1.5 0 1 .2 1.1.9h1.8v-.1h.1zm5 4.7h1.8v-6.6h-1.8v6.6zm6.8 0h1.6v-5.1l2.3 5.1h2.5v-6.6h-1.6v4.9l-2.3-4.9h-2.5v6.6zm11.2 0h1.8v-6.6h-1.8v6.6zm6.2 0h1.8l.5-1.4h2.6l.5 1.4h2l-2.6-6.6h-2.1l-2.7 6.6zm2.7-2.5l.9-2.7.8 2.7h-1.7zm21.8-2c0-.2 0-.8-.6-1.4-.6-.6-1.4-.8-2.4-.8-.9 0-1.8.2-2.5.9-.6.7-.8 1.6-.8 2.5 0 .7.1 1.7.8 2.5.7.8 1.8.9 2.5.9.9 0 2.9-.2 2.9-2.3h-1.9c0 .2-.1.9-1.1.9-1.4 0-1.4-1.7-1.4-2 0-1.2.3-2.1 1.5-2.1.6 0 1 .2 1 .9h2zm4.5 1.2c0 2.4 1.6 3.4 3.4 3.4 1.6 0 3.4-.8 3.4-3.4 0-1.6-.7-3.5-3.3-3.5-.5 0-1.7.1-2.6.9-.9.9-.9 2.1-.9 2.6zm1.8 0c0-1.1.3-2.1 1.5-2.1.5 0 .8.1 1.1.5.2.3.5.8.5 1.7s-.2 2.1-1.5 2.1-1.6-1.2-1.6-2.2zm9.6 3.3h1.6v-5.5l1.5 5.5h1.6l1.6-5.4-.1 5.4h1.7v-6.6h-2.8l-1 4.4-1.1-4.4h-2.8v6.6h-.2zm12.8 0h1.6v-5.5l1.5 5.5h1.6l1.6-5.4-.1 5.4h1.7v-6.6h-2.8l-1 4.4-1.1-4.4h-2.8v6.6h-.2zm12.5-3.3c0 2.4 1.6 3.4 3.4 3.4 1.6 0 3.4-.8 3.4-3.4 0-1.6-.7-3.5-3.3-3.5-.5 0-1.7.1-2.6.9-.8.9-.9 2.1-.9 2.6zm1.9 0c0-1.1.3-2.1 1.5-2.1.5 0 .8.1 1.1.5.2.3.5.8.5 1.7s-.2 2.1-1.5 2.1c-1.3-.1-1.6-1.2-1.6-2.2zm9.6 3.3h1.6v-5.1l2.3 5.1h2.5v-6.6h-1.6v4.9l-2.1-4.9h-2.5v6.6h-.2zm11.9 0h2.1l1.2-4.9 1.1 4.9h2.1l1.1-6.6h-1.6l-.6 4.8-1-4.8h-2.3l-1 4.8-.6-4.8h-1.8l1.3 6.6zm12.2 0h5v-1.2h-3.2v-1.5h2.9v-1.2h-2.9v-1.4h3.1v-1.2h-4.9v6.5zm9.2 0h1.8l.5-1.4h2.6l.5 1.4h2l-2.6-6.6h-2.1l-2.7 6.6zm2.7-2.5l.9-2.7.8 2.7h-1.7zm9.1 2.5h4.8v-1.2h-2.9v-5.3h-1.8v6.5h-.1zm9.7 0h1.8v-5.2h2v-1.4h-5.9v1.2h2v5.4h.1zm8.2 0h1.8v-2.6h2.1v2.6h1.8v-6.6h-1.8v2.6h-2.1v-2.6h-1.8v6.6zm17.6-6.6v3.7c0 1 0 2.9 3.1 2.9.8 0 2-.1 2.6-.9.5-.5.5-1.2.5-2v-3.7h-1.8v3.8c0 .7-.1 1.6-1.4 1.6-.5 0-.9-.2-1.1-.6-.2-.2-.2-.7-.2-1v-3.8h-1.7zm11.3 6.6h1.6v-5.1l2.3 5.1h2.5v-6.6h-1.6v4.9l-2.3-4.9h-2.5v6.6zm11.2 0h1.8v-6.6h-1.8v6.6zm8.6 0h2.1l2.4-6.6h-1.8l-1.6 4.8-1.5-4.8h-2l2.4 6.6zm8.9 0h5v-1.2h-3.2v-1.5h2.9v-1.2h-2.9v-1.4h3.1v-1.2h-4.9v6.5zm9.7 0h1.8v-2.6h.8c.8 0 .8.3.9 1.1.1.6.1 1.1.2 1.5h1.9l-.3-1.6c-.1-1-.2-1.6-1.5-1.6.2 0 .6-.1 1-.3.3-.2.6-.5.6-1.2s-.2-1-.5-1.2c-.3-.5-.8-.5-2-.5h-3.1v6.4h.2zm1.8-5.3h.7c.6 0 1.2 0 1.2.8 0 .2-.1.6-.5.8h-1.5v-1.6h.1zm8.3 3.2c0 .2 0 .9.5 1.5.6.7 1.7.8 2.4.8 1.6 0 2.8-.7 2.8-2.1 0-1.4-1-1.7-1.9-1.9l-1.2-.3c-.2-.1-.7-.2-.7-.7 0-.3.3-.7.9-.7.9 0 .9.7.9.9h1.8c0-.7-.1-2-2.7-2-1.9 0-2.7 1-2.7 2 0 1.4 1.1 1.7 1.6 1.8l1.6.5c.5.1.6.3.6.7 0 .8-.8.8-1 .8-1.1 0-1.1-.8-1.1-1h-1.6v-.3h-.2zm10.4 2.1h1.8v-6.6h-1.8v6.6zm8.3 0h1.8v-5.2h2v-1.4h-5.9v1.2h2v5.4h.1zm7.8-6.6l2.5 4.2v2.4h1.8v-2.3l2.6-4.2h-1.8l-1.5 2.7-1.5-2.7h-2.1v-.1zM-1543-496h4.6l3.4 10.7 3.5-10.7h4.1l-5.4 14.9h-4.9l-5.3-14.9zm24.7 4.7c-.2-1.5-1.2-2-2.4-2-2.5 0-3.3 2.3-3.3 5 0 .9 0 4.6 3.2 4.6 2.1 0 2.4-1.6 2.5-2.1h4.3c0 4.6-4.8 5.1-6.7 5.1-1.5 0-4-.2-5.7-2-1.6-1.7-1.9-4.1-1.9-5.7 0-2 .5-4.1 1.9-5.7 1.5-1.7 3.5-2.1 5.7-2.1 2.4 0 4.3.6 5.4 1.8 1.2 1.2 1.2 2.6 1.2 3.2h-4.2v-.1zm9.6-4.7v8.8c0 .8.1 1.6.5 2.3.6.8 1.5 1.2 2.5 1.2 2.6 0 2.9-2.1 2.9-3.6v-8.7h4.1v8.6c0 1.7-.2 3.4-1.1 4.5-1.5 1.8-4.1 2.1-6 2.1-7 0-7-4.4-7-6.8v-8.5c-.1.1 4.1.1 4.1.1z"/><defs><path d="M-1562.3-498h19.2v19h-19.2z"/></defs><clipPath><use xlink:href="#a" overflow="visible"/></clipPath><path clip-path="url(#b)" fill="#AAB2B1" d="M-1552.8-483c-.3 0-.7.3-.7.7s.3.7.7.7c.3 0 .7-.3.7-.7s-.2-.7-.7-.7m1 .7c0 .1 0 .2-.1.5l3.4-.5-3.4-.5c.1.3.1.4.1.5"/><defs><path d="M-1562.3-498h19.2v19h-19.2z"/></defs><clipPath><use xlink:href="#c" overflow="visible"/></clipPath><path clip-path="url(#d)" fill="#AAB2B1" d="M-1557-482.3l3.4.5c0-.1-.1-.2-.1-.5 0-.1 0-.3.1-.5l-3.4.5zm4.2-12.1c.3 0 .6-.2.6-.6 0-.3-.2-.6-.6-.6-.2 0-.6.2-.6.6.1.4.4.6.6.6m-.8-.5c0-.1 0-.2.1-.3l-2.4.3 2.4.3c-.1-.1-.1-.2-.1-.3"/><defs><path d="M-1562.3-498h19.2v19h-19.2z"/></defs><clipPath><use xlink:href="#e" overflow="visible"/></clipPath><path clip-path="url(#f)" fill="#AAB2B1" d="M-1549.6-494.9l-2.4-.3.1.3c0 .1 0 .2-.1.3l2.4-.3zm-3.6 4.1c0-.1-.1-.2-.8-.2l-.9.2s.1 0 .2.1c.1.2.1.9.1.9l-.1 5.7v.1s.1.1.6.1.7-.1.7-.1v-5.8s0-.6.1-.9l.1-.1m2.3 6.8c.2 0 .2-.1 0 0v-5.7s0-.7.1-.9l.2-.2s-.1-.2-.8-.2c-.8 0-.9.2-.9.2v.1s.1 0 .2.1c.1.2.1.9.1.9v5.8s.1.1.6.1l.5-.2"/><defs><path d="M-1562.3-498h19.2v19h-19.2z"/></defs><clipPath><use xlink:href="#g" overflow="visible"/></clipPath><path clip-path="url(#h)" fill="#AAB2B1" d="M-1552.7-497.7c-5.1 0-9.2 4.1-9.2 9.2s4.1 9.2 9.2 9.2 9.2-4.1 9.2-9.2c-.1-5.1-4.2-9.2-9.2-9.2m0 1.1c2.5 0 4.8 1.1 6.3 2.9h-3.4v.3h-5.7v-.2h-3.4c1.4-1.9 3.6-3 6.2-3m5.7 11.4h-.9l-.5-6h.6l.8 6zm-10-6l-.5 6h-.9l.8-6h.6zm-3.8 2.7c0-1.8.6-3.6 1.7-5 0 0 .2.2.3.5.2.3.1.9.1.9l-1 7.7c-.8-1.2-1.1-2.6-1.1-4.1m8.1 8.1c-2.7 0-5-1.2-6.6-3.3h2.7c.2 0 .2-.3.2-.3l.6-7.7h6l.6 7.7s0 .3.2.3h2.7c-1.4 2.1-3.8 3.3-6.4 3.3m6-11.6s-.1-.6.1-.9c.1-.1.3-.5.3-.5v-.1c1 1.4 1.7 3.1 1.7 5 0 1.5-.5 2.9-1.1 4.1l-1-7.6z"/></g><g class="vcu-dk-hover"><defs><path d="M-1562.6-340.5h20.2v20h-20.2z"/></defs><clipPath><use xlink:href="#a" overflow="visible"/></clipPath><path clip-path="url(#b)" fill="#FEBE10" d="M-1552.5-340.5c-5.6 0-10.1 4.5-10.1 10 0 5.6 4.5 10 10 10s10-4.5 10-10c.1-5.5-4.4-10-9.9-10"/><defs><path d="M-1562.3-340h19.2v19h-19.2z"/></defs><clipPath><use xlink:href="#c" overflow="visible"/></clipPath><path clip-path="url(#d)" d="M-1552.7-339.7c-5.1 0-9.2 4.1-9.2 9.2s4.1 9.2 9.2 9.2 9.2-4.1 9.2-9.2c-.1-5.1-4.2-9.2-9.2-9.2m0 1.1c2.5 0 4.8 1.1 6.3 2.9h-3.4v.3h-5.7v-.2h-3.4c1.4-1.9 3.6-3 6.2-3m5.7 11.4h-.9l-.5-6h.6l.8 6zm-10-6l-.5 6h-.9l.8-6h.6zm-3.8 2.7c0-1.8.6-3.6 1.7-5 0 0 .2.2.3.5.2.3.1.9.1.9l-1 7.7c-.8-1.2-1.1-2.6-1.1-4.1m8.1 8.1c-2.7 0-5-1.2-6.6-3.3h2.7c.2 0 .2-.3.2-.3l.6-7.7h6l.6 7.7s0 .3.2.3h2.7c-1.4 2.1-3.8 3.3-6.4 3.3m6-11.6s-.1-.6.1-.9c.1-.1.3-.5.3-.5v-.1c1 1.4 1.7 3.1 1.7 5 0 1.5-.5 2.9-1.1 4.1l-1-7.6z"/><path fill="#ddd" d="M-1484.8-327.2h2.1l2.4-6.6h-1.8l-1.6 4.8-1.5-4.8h-2l2.4 6.6zm8.9 0h1.8v-6.6h-1.8v6.6zm6.8 0h1.8v-2.6h.8c.8 0 .8.3.9 1.1.1.6.1 1.1.2 1.5h1.9l-.3-1.6c-.1-1-.2-1.6-1.5-1.7.2 0 .6-.1 1-.3.3-.2.6-.5.6-1.2s-.2-1-.5-1.2c-.3-.5-.8-.5-2-.5h-3.1v6.6h.2v-.1zm1.8-5.3h.7c.6 0 1.2 0 1.2.8 0 .2-.1.6-.5.8h-1.5v-1.6h.1zm14.7.6c0-.3 0-.9-.5-1.4-.6-.5-1.4-.7-2.4-.7-.8 0-1.9.1-2.7.8-.8.7-1 1.8-1 2.6 0 1 .3 2 1.2 2.7.8.6 1.7.7 2.5.7 1 0 1.9-.1 2.8-.3v-3.5h-3.1v1.2h1.4v1.2c-.3.1-.7.1-1 .1-1.1 0-1.9-.7-1.9-2.1 0-1.1.5-2.1 1.7-2.1.5 0 1 .2 1.1.9h1.8v-.1h.1zm5 4.7h1.8v-6.6h-1.8v6.6zm6.8 0h1.6v-5.1l2.3 5.1h2.5v-6.6h-1.6v4.9l-2.3-4.9h-2.5v6.6zm11.2 0h1.8v-6.6h-1.8v6.6zm6.2 0h1.8l.5-1.4h2.6l.5 1.4h2l-2.6-6.6h-2.1l-2.7 6.6zm2.7-2.5l.9-2.7.8 2.7h-1.7zm21.8-2c0-.2 0-.8-.6-1.4-.6-.6-1.4-.8-2.4-.8-.9 0-1.8.2-2.5.9-.6.7-.8 1.6-.8 2.5 0 .7.1 1.7.8 2.5.7.8 1.8.9 2.5.9.9 0 2.9-.2 2.9-2.3h-1.9c0 .2-.1.9-1.1.9-1.4 0-1.4-1.7-1.4-2 0-1.2.3-2.1 1.5-2.1.6 0 1 .2 1 .9h2zm4.5 1.2c0 2.4 1.6 3.4 3.4 3.4 1.6 0 3.4-.8 3.4-3.4 0-1.6-.7-3.5-3.3-3.5-.5 0-1.7.1-2.6.9-.9.9-.9 2.1-.9 2.6zm1.8 0c0-1.1.3-2.1 1.5-2.1.5 0 .8.1 1.1.5.2.3.5.8.5 1.7s-.2 2.1-1.5 2.1-1.6-1.2-1.6-2.2zm9.6 3.3h1.6v-5.5l1.5 5.5h1.6l1.6-5.4-.1 5.4h1.7v-6.6h-2.8l-1 4.4-1.1-4.4h-2.8v6.6h-.2zm12.8 0h1.6v-5.5l1.5 5.5h1.6l1.6-5.4-.1 5.4h1.7v-6.6h-2.8l-1 4.4-1.1-4.4h-2.8v6.6h-.2zm12.5-3.3c0 2.4 1.6 3.4 3.4 3.4 1.6 0 3.4-.8 3.4-3.4 0-1.6-.7-3.5-3.3-3.5-.5 0-1.7.1-2.6.9-.8.9-.9 2.1-.9 2.6zm1.9 0c0-1.1.3-2.1 1.5-2.1.5 0 .8.1 1.1.5.2.3.5.8.5 1.7s-.2 2.1-1.5 2.1c-1.3-.1-1.6-1.2-1.6-2.2zm9.6 3.3h1.6v-5.1l2.3 5.1h2.5v-6.6h-1.6v4.9l-2.1-4.9h-2.5v6.6h-.2zm11.9 0h2.1l1.2-4.9 1.1 4.9h2.1l1.1-6.6h-1.6l-.6 4.8-1-4.8h-2.3l-1 4.8-.6-4.8h-1.8l1.3 6.6zm12.2 0h5v-1.2h-3.2v-1.5h2.9v-1.2h-2.9v-1.4h3.1v-1.2h-4.9v6.5zm9.2 0h1.8l.5-1.4h2.6l.5 1.4h2l-2.6-6.6h-2.1l-2.7 6.6zm2.7-2.5l.9-2.7.8 2.7h-1.7zm9.1 2.5h4.8v-1.2h-2.9v-5.3h-1.8v6.5h-.1zm9.7 0h1.8v-5.2h2v-1.4h-5.9v1.2h2v5.4h.1zm8.2 0h1.8v-2.6h2.1v2.6h1.8v-6.6h-1.8v2.6h-2.1v-2.6h-1.8v6.6zm17.6-6.6v3.7c0 1 0 2.9 3.1 2.9.8 0 2-.1 2.6-.9.5-.5.5-1.2.5-2v-3.7h-1.8v3.8c0 .7-.1 1.6-1.4 1.6-.5 0-.9-.2-1.1-.6-.2-.2-.2-.7-.2-1v-3.8h-1.7zm11.3 6.6h1.6v-5.1l2.3 5.1h2.5v-6.6h-1.6v4.9l-2.3-4.9h-2.5v6.6zm11.2 0h1.8v-6.6h-1.8v6.6zm8.6 0h2.1l2.4-6.6h-1.8l-1.6 4.8-1.5-4.8h-2l2.4 6.6zm8.9 0h5v-1.2h-3.2v-1.5h2.9v-1.2h-2.9v-1.4h3.1v-1.2h-4.9v6.5zm9.7 0h1.8v-2.6h.8c.8 0 .8.3.9 1.1.1.6.1 1.1.2 1.5h1.9l-.3-1.6c-.1-1-.2-1.6-1.5-1.6.2 0 .6-.1 1-.3.3-.2.6-.5.6-1.2s-.2-1-.5-1.2c-.3-.5-.8-.5-2-.5h-3.1v6.4h.2zm1.8-5.3h.7c.6 0 1.2 0 1.2.8 0 .2-.1.6-.5.8h-1.5v-1.6h.1zm8.3 3.2c0 .2 0 .9.5 1.5.6.7 1.7.8 2.4.8 1.6 0 2.8-.7 2.8-2.1 0-1.4-1-1.7-1.9-1.9l-1.2-.3c-.2-.1-.7-.2-.7-.7 0-.3.3-.7.9-.7.9 0 .9.7.9.9h1.8c0-.7-.1-2-2.7-2-1.9 0-2.7 1-2.7 2 0 1.4 1.1 1.7 1.6 1.8l1.6.5c.5.1.6.3.6.7 0 .8-.8.8-1 .8-1.1 0-1.1-.8-1.1-1h-1.6v-.3h-.2zm10.4 2.1h1.8v-6.6h-1.8v6.6zm8.3 0h1.8v-5.2h2v-1.4h-5.9v1.2h2v5.4h.1zm7.8-6.6l2.5 4.2v2.4h1.8v-2.3l2.6-4.2h-1.8l-1.5 2.7-1.5-2.7h-2.1v-.1z"/><path fill="#FDC010" d="M-1543-338h4.6l3.4 10.7 3.5-10.7h4.1l-5.4 14.9h-4.9l-5.3-14.9zm24.7 4.7c-.2-1.5-1.2-2-2.4-2-2.5 0-3.3 2.3-3.3 5 0 .9 0 4.6 3.2 4.6 2.1 0 2.4-1.6 2.5-2.1h4.3c0 4.6-4.8 5.1-6.7 5.1-1.5 0-4-.2-5.7-2-1.6-1.7-1.9-4.1-1.9-5.7 0-2 .5-4.1 1.9-5.7 1.5-1.7 3.5-2.1 5.7-2.1 2.4 0 4.3.6 5.4 1.8 1.2 1.2 1.2 2.6 1.2 3.2h-4.2v-.1zm9.6-4.7v8.8c0 .8.1 1.6.5 2.3.6.8 1.5 1.2 2.5 1.2 2.6 0 2.9-2.1 2.9-3.6v-8.7h4.1v8.6c0 1.7-.2 3.4-1.1 4.5-1.5 1.8-4.1 2.1-6 2.1-7 0-7-4.4-7-6.8v-8.5c-.1.1 4.1.1 4.1.1z"/><defs><path d="M-1562.3-340h19.2v19h-19.2z"/></defs><clipPath><use xlink:href="#e" overflow="visible"/></clipPath><path clip-path="url(#f)" d="M-1552.8-325c-.3 0-.7.3-.7.7s.3.7.7.7c.3 0 .7-.3.7-.7s-.2-.7-.7-.7m1 .7c0 .1 0 .2-.1.5l3.4-.5-3.4-.5c.1.3.1.4.1.5"/><defs><path d="M-1562.3-340h19.2v19h-19.2z"/></defs><clipPath><use xlink:href="#g" overflow="visible"/></clipPath><path clip-path="url(#h)" d="M-1557-324.3l3.4.5c0-.1-.1-.2-.1-.5 0-.1 0-.3.1-.5l-3.4.5zm4.2-12.1c.3 0 .6-.2.6-.6 0-.3-.2-.6-.6-.6-.2 0-.6.2-.6.6.1.4.4.6.6.6m-.8-.5c0-.1 0-.2.1-.3l-2.4.3 2.4.3c-.1-.1-.1-.2-.1-.3"/><defs><path d="M-1562.3-340h19.2v19h-19.2z"/></defs><clipPath><use xlink:href="#i" overflow="visible"/></clipPath><path clip-path="url(#j)" d="M-1549.6-336.9l-2.4-.3.1.3c0 .1 0 .2-.1.3l2.4-.3zm-3.6 4.1c0-.1-.1-.2-.8-.2l-.9.2s.1 0 .2.1c.1.2.1.9.1.9l-.1 5.7v.1s.1.1.6.1.7-.1.7-.1v-5.8s0-.6.1-.9l.1-.1m2.3 6.8c.2 0 .2-.1 0 0v-5.7s0-.7.1-.9l.2-.2s-.1-.2-.8-.2c-.8 0-.9.2-.9.2v.1s.1 0 .2.1c.1.2.1.9.1.9v5.8s.1.1.6.1l.5-.2"/></g></svg>