<svg xmlns="http://www.w3.org/2000/svg" viewBox="-1142.5 -453 95.6 32" enable-background="new -1142.5 -453 95.6 32"><path class="vcuarts" fill="#AAB2B1" d="M-1131-445h4.1l-5.5 14.9h-4.8l-5.3-14.9h4.6l3.3 10.8 3.6-10.8zm13.9 4.7c-.1-1.4-1.1-2.1-2.9-2.1-2.4 0-2.9 2.8-2.9 5.1 0 2.2.5 4.7 2.9 4.7 1.7 0 2.8-.8 2.9-2.2h4.4c.1 3.8-3.6 5.1-7.1 5.1-4.7 0-7.1-2.8-7.1-7.8s2.5-7.7 7.1-7.8c3.7 0 7.2 1.3 7.1 5.1h-4.4v-.1zm19.7-4.7v9.5c0 4.1-3.3 5.9-7.1 5.9s-7.1-1.6-7.1-5.9v-9.5h4.1v9.3c.1 2 1 3.1 3 3.1s3-1.1 3-3.1v-9.3h4.1z"/><path class="vcuarts" fill="#474D4D" d="M-1095.2-440.7c0-1.8.8-3 2.1-3.7 1.3-.7 2.8-.9 4.4-.9 3 0 6.3 1.1 6.3 5.6v8.2c0 .7.1 1.1.2 1.6h-4c-.1-.7-.1-1.4-.1-2h-.1c-1 1.7-2.5 2.4-4.6 2.4-2.8 0-4.8-1.6-4.8-4.5 0-1 .5-3.6 3.2-4.7 1.7-.8 4-.8 5.9-.8v-1.5c0-.6-.5-1.8-2.1-1.8-1.5 0-2.1 1.5-2 2.2h-4.4v-.1zm3.5 6.1c0 1.3.9 2.2 2.2 2.2 2.4 0 2.5-2.8 2.5-4.5-1.6-.1-4.7-.1-4.7 2.3zm14.8-10.3l.1 2.8h.1c.9-2.3 2.9-3 5.1-2.9v3.9h-2c-.7.1-1.7.5-2.2 1.1-.5.8-.6 1.6-.6 2.6v7.4h-4.4v-12c0-.6-.1-1.8-.1-3h4v.1zM-1068.7-444.9v-3l4.5-1.6v4.6h3.3v3h-3.3v6.9c0 2 .3 2.5 1.8 2.5l1.4-.1v2.6c-.5.2-2.9.5-3.4.5-3.4 0-4.3-1.8-4.3-5.1v-7.4h-3v-3h3v.1zm17.1 3.9c0-.9-.9-1.4-2-1.4-1.3 0-1.8.3-1.8 1.4 0 2.3 8.5 1 8.5 6.6 0 3.2-4 4.9-6.8 4.9-3.4 0-6.6-1.4-6.6-4.8h4.1c.1 1.1 1.1 1.8 2.4 1.8s2.2-.5 2.2-1.6-2.2-1.7-3-2c-2.9-.7-5.5-1.3-5.5-4.8 0-3.1 3.8-4.5 6.4-4.5 3.1 0 5.9 1.1 6 4.4h-3.9z"/>


<path class="vcuarts-hover" fill="#FEBE10" d="M-1131-389h4.1l-5.5 14.9h-4.8l-5.3-14.9h4.6l3.3 10.8 3.6-10.8zm13.9 4.7c-.1-1.4-1.1-2.1-2.9-2.1-2.4 0-2.9 2.8-2.9 5.1 0 2.2.5 4.7 2.9 4.7 1.7 0 2.8-.8 2.9-2.2h4.4c.1 3.8-3.6 5.1-7.1 5.1-4.7 0-7.1-2.8-7.1-7.8s2.5-7.7 7.1-7.8c3.7 0 7.2 1.3 7.1 5.1h-4.4v-.1zm19.7-4.7v9.5c0 4.1-3.3 5.9-7.1 5.9s-7.1-1.6-7.1-5.9v-9.5h4.1v9.3c.1 2 1 3.1 3 3.1s3-1.1 3-3.1v-9.3h4.1z"/><path class="vcuarts-hover" fill="#EE3041" d="M-1095.2-384.7c0-1.8.8-3 2.1-3.7 1.3-.7 2.8-.9 4.4-.9 3 0 6.3 1.1 6.3 5.6v8.2c0 .7.1 1.1.2 1.6h-4c-.1-.7-.1-1.4-.1-2h-.1c-1 1.7-2.5 2.4-4.6 2.4-2.8 0-4.8-1.6-4.8-4.5 0-1 .5-3.6 3.2-4.7 1.7-.8 4-.8 5.9-.8v-1.5c0-.6-.5-1.8-2.1-1.8-1.5 0-2.1 1.5-2 2.2h-4.4v-.1zm3.5 6.1c0 1.3.9 2.2 2.2 2.2 2.4 0 2.5-2.8 2.5-4.5-1.6-.1-4.7-.1-4.7 2.3zm14.8-10.3l.1 2.8h.1c.9-2.3 2.9-3 5.1-2.9v3.9h-2c-.7.1-1.7.5-2.2 1.1-.5.8-.6 1.6-.6 2.6v7.4h-4.4v-12c0-.6-.1-1.8-.1-3h4v.1zM-1068.7-388.9v-3l4.5-1.6v4.6h3.3v3h-3.3v6.9c0 2 .3 2.5 1.8 2.5l1.4-.1v2.6c-.5.2-2.9.5-3.4.5-3.4 0-4.3-1.8-4.3-5.1v-7.4h-3v-3h3v.1zm17.1 3.9c0-.9-.9-1.4-2-1.4-1.3 0-1.8.3-1.8 1.4 0 2.3 8.5 1 8.5 6.6 0 3.2-4 4.9-6.8 4.9-3.4 0-6.6-1.4-6.6-4.8h4.1c.1 1.1 1.1 1.8 2.4 1.8s2.2-.5 2.2-1.6-2.2-1.7-3-2c-2.9-.7-5.5-1.3-5.5-4.8 0-3.1 3.8-4.5 6.4-4.5 3.1 0 5.9 1.1 6 4.4h-3.9z"/></svg>